<mxfile host="app.diagrams.net" modified="2023-06-23T01:34:00.872Z" agent="Mozilla/5.0 (X11; Linux x86_64) AppleWebKit/537.36 (KHTML, like Gecko) Chrome/113.0.0.0 Safari/537.36" etag="lo4RtI0q3f3kg5p8GFyl" version="21.5.0" type="device">
  <diagram name="Страница 1" id="lSwWvyvNUSx_j-UgrXVB">
    <mxGraphModel dx="2049" dy="1059" grid="1" gridSize="10" guides="1" tooltips="1" connect="1" arrows="1" fold="1" page="1" pageScale="1" pageWidth="1100" pageHeight="850" math="0" shadow="0">
      <root>
        <mxCell id="0" />
        <mxCell id="1" parent="0" />
        <mxCell id="tH8BwVLAkVhyHrP2c0Ba-1" value="" style="endArrow=classic;html=1;rounded=0;" edge="1" parent="1">
          <mxGeometry width="50" height="50" relative="1" as="geometry">
            <mxPoint x="464" y="524" as="sourcePoint" />
            <mxPoint x="464" y="304" as="targetPoint" />
          </mxGeometry>
        </mxCell>
        <mxCell id="tH8BwVLAkVhyHrP2c0Ba-2" value="" style="endArrow=classic;html=1;rounded=0;" edge="1" parent="1">
          <mxGeometry width="50" height="50" relative="1" as="geometry">
            <mxPoint x="464" y="524" as="sourcePoint" />
            <mxPoint x="704" y="524" as="targetPoint" />
          </mxGeometry>
        </mxCell>
        <mxCell id="tH8BwVLAkVhyHrP2c0Ba-4" value="p&lt;sub&gt;1&lt;/sub&gt;" style="ellipse;whiteSpace=wrap;html=1;aspect=fixed;fillColor=#dae8fc;strokeColor=#6c8ebf;" vertex="1" parent="1">
          <mxGeometry x="474" y="344" width="20" height="20" as="geometry" />
        </mxCell>
        <mxCell id="tH8BwVLAkVhyHrP2c0Ba-6" value="p&lt;sub style=&quot;border-color: var(--border-color);&quot;&gt;2&lt;/sub&gt;" style="ellipse;whiteSpace=wrap;html=1;aspect=fixed;fillColor=#dae8fc;strokeColor=#6c8ebf;" vertex="1" parent="1">
          <mxGeometry x="484" y="394" width="20" height="20" as="geometry" />
        </mxCell>
        <mxCell id="tH8BwVLAkVhyHrP2c0Ba-7" value="p&lt;sub style=&quot;border-color: var(--border-color);&quot;&gt;3&lt;/sub&gt;" style="ellipse;whiteSpace=wrap;html=1;aspect=fixed;fillColor=#dae8fc;strokeColor=#6c8ebf;" vertex="1" parent="1">
          <mxGeometry x="514" y="444" width="20" height="20" as="geometry" />
        </mxCell>
        <mxCell id="tH8BwVLAkVhyHrP2c0Ba-8" value="p&lt;sub style=&quot;border-color: var(--border-color);&quot;&gt;4&lt;/sub&gt;" style="ellipse;whiteSpace=wrap;html=1;aspect=fixed;fillColor=#dae8fc;strokeColor=#6c8ebf;" vertex="1" parent="1">
          <mxGeometry x="554" y="474" width="20" height="20" as="geometry" />
        </mxCell>
        <mxCell id="tH8BwVLAkVhyHrP2c0Ba-9" value="p&lt;sub style=&quot;border-color: var(--border-color);&quot;&gt;5&lt;/sub&gt;" style="ellipse;whiteSpace=wrap;html=1;aspect=fixed;fillColor=#dae8fc;strokeColor=#6c8ebf;" vertex="1" parent="1">
          <mxGeometry x="604" y="488" width="20" height="20" as="geometry" />
        </mxCell>
        <mxCell id="tH8BwVLAkVhyHrP2c0Ba-10" value="p&lt;sub style=&quot;border-color: var(--border-color);&quot;&gt;6&lt;/sub&gt;" style="ellipse;whiteSpace=wrap;html=1;aspect=fixed;fillColor=#dae8fc;strokeColor=#6c8ebf;" vertex="1" parent="1">
          <mxGeometry x="664" y="494" width="20" height="20" as="geometry" />
        </mxCell>
        <mxCell id="tH8BwVLAkVhyHrP2c0Ba-11" value="" style="ellipse;whiteSpace=wrap;html=1;aspect=fixed;fillColor=#f8cecc;strokeColor=none;shadow=0;sketch=1;curveFitting=1;jiggle=2;" vertex="1" parent="1">
          <mxGeometry x="564" y="364" width="20" height="20" as="geometry" />
        </mxCell>
        <mxCell id="tH8BwVLAkVhyHrP2c0Ba-12" value="" style="ellipse;whiteSpace=wrap;html=1;aspect=fixed;fillColor=#f8cecc;strokeColor=none;shadow=0;sketch=1;curveFitting=1;jiggle=2;" vertex="1" parent="1">
          <mxGeometry x="604" y="444" width="20" height="20" as="geometry" />
        </mxCell>
        <mxCell id="tH8BwVLAkVhyHrP2c0Ba-13" value="" style="ellipse;whiteSpace=wrap;html=1;aspect=fixed;fillColor=#f8cecc;strokeColor=none;shadow=0;sketch=1;curveFitting=1;jiggle=2;" vertex="1" parent="1">
          <mxGeometry x="544" y="414" width="20" height="20" as="geometry" />
        </mxCell>
        <mxCell id="tH8BwVLAkVhyHrP2c0Ba-14" value="" style="ellipse;whiteSpace=wrap;html=1;aspect=fixed;fillColor=#f8cecc;strokeColor=none;shadow=0;sketch=1;curveFitting=1;jiggle=2;" vertex="1" parent="1">
          <mxGeometry x="634" y="394" width="20" height="20" as="geometry" />
        </mxCell>
        <mxCell id="tH8BwVLAkVhyHrP2c0Ba-15" value="" style="ellipse;whiteSpace=wrap;html=1;aspect=fixed;fillColor=#f8cecc;strokeColor=none;shadow=0;sketch=1;curveFitting=1;jiggle=2;" vertex="1" parent="1">
          <mxGeometry x="674" y="434" width="20" height="20" as="geometry" />
        </mxCell>
        <mxCell id="tH8BwVLAkVhyHrP2c0Ba-16" value="" style="ellipse;whiteSpace=wrap;html=1;aspect=fixed;fillColor=#f8cecc;strokeColor=none;shadow=0;sketch=1;curveFitting=1;jiggle=2;" vertex="1" parent="1">
          <mxGeometry x="524" y="364" width="20" height="20" as="geometry" />
        </mxCell>
        <mxCell id="tH8BwVLAkVhyHrP2c0Ba-17" value="" style="ellipse;whiteSpace=wrap;html=1;aspect=fixed;fillColor=#f8cecc;strokeColor=none;shadow=0;sketch=1;curveFitting=1;jiggle=2;" vertex="1" parent="1">
          <mxGeometry x="604" y="334" width="20" height="20" as="geometry" />
        </mxCell>
        <mxCell id="tH8BwVLAkVhyHrP2c0Ba-18" value="" style="ellipse;whiteSpace=wrap;html=1;aspect=fixed;fillColor=#f8cecc;strokeColor=none;shadow=0;sketch=1;curveFitting=1;jiggle=2;" vertex="1" parent="1">
          <mxGeometry x="524" y="314" width="20" height="20" as="geometry" />
        </mxCell>
        <mxCell id="tH8BwVLAkVhyHrP2c0Ba-19" value="Ошибка решения" style="text;html=1;strokeColor=none;fillColor=none;align=center;verticalAlign=middle;whiteSpace=wrap;rounded=0;rotation=-90;" vertex="1" parent="1">
          <mxGeometry x="394" y="364" width="120" height="30" as="geometry" />
        </mxCell>
        <mxCell id="tH8BwVLAkVhyHrP2c0Ba-20" value="Время работы" style="text;html=1;strokeColor=none;fillColor=none;align=center;verticalAlign=middle;whiteSpace=wrap;rounded=0;" vertex="1" parent="1">
          <mxGeometry x="597" y="517" width="110" height="30" as="geometry" />
        </mxCell>
        <mxCell id="tH8BwVLAkVhyHrP2c0Ba-21" value="&lt;font color=&quot;#964442&quot;&gt;Плохие решения&lt;/font&gt;" style="text;html=1;strokeColor=none;fillColor=none;align=center;verticalAlign=middle;whiteSpace=wrap;rounded=0;" vertex="1" parent="1">
          <mxGeometry x="564" y="384" width="60" height="30" as="geometry" />
        </mxCell>
        <mxCell id="tH8BwVLAkVhyHrP2c0Ba-22" value="&lt;font color=&quot;#5e73b0&quot;&gt;Парето-фронт&lt;/font&gt;" style="text;html=1;strokeColor=none;fillColor=none;align=center;verticalAlign=middle;whiteSpace=wrap;rounded=0;rotation=35;" vertex="1" parent="1">
          <mxGeometry x="479" y="469" width="90" height="30" as="geometry" />
        </mxCell>
      </root>
    </mxGraphModel>
  </diagram>
</mxfile>
